<?xml version="1.0" encoding="UTF-8"?>
<svg id="Layer_2" data-name="Layer 2" xmlns="http://www.w3.org/2000/svg" viewBox="0 0 300.62 300.62">
  <defs>
    <style>
      .cls-1 {
        fill: #fff;
      }

      .cls-2 {
        fill: #2e4cff;
      }
    </style>
  </defs>
  <g id="Layer_1-2" data-name="Layer 1">
    <g>
      <rect class="cls-2" width="300.62" height="300.62"/>
      <g>
        <path class="cls-1" d="M46.66,167.6v-27.56h-6.37v-15.6h6.37v-17.16h18.2v17.16h16.25v15.6h-16.25v25.87c0,7.54,4.03,10.66,10.4,10.66,1.43,0,2.73-.13,4.03-.65v15.86c-1.69,.65-4.16,1.04-7.02,1.04-16.51,0-25.61-8.45-25.61-25.22Z"/>
        <path class="cls-1" d="M179.73,191.78h-18.2v-43.68c0-5.72-4.16-9.88-9.75-9.88s-9.62,4.16-9.62,9.88v43.68h-18.2v-43.68c0-5.72-4.16-9.88-9.75-9.88s-9.62,4.16-9.62,9.88v43.68h-18.2v-43.42c0-15.34,12.22-26,27.69-26,8.32,0,14.95,3.12,19.24,8.58,4.55-5.46,11.31-8.58,19.5-8.58,15.6,0,26.91,10.66,26.91,26v43.42Z"/>
        <path class="cls-1" d="M200.73,191.78l-21.06-67.34h19.11l14.04,51.48h.52l13.91-51.48h18.98l-20.93,67.34h-24.57Z"/>
        <path class="cls-1" d="M239.4,182.94c0-5.72,4.81-10.4,10.53-10.4s10.4,4.68,10.4,10.4-4.81,10.4-10.4,10.4-10.53-4.68-10.53-10.4Z"/>
      </g>
    </g>
  </g>
</svg>